<?xml version="1.0" encoding="UTF-8" standalone="no"?>
<!-- Created with Inkscape (http://www.inkscape.org/) -->
<svg
   xmlns:dc="http://purl.org/dc/elements/1.1/"
   xmlns:cc="http://creativecommons.org/ns#"
   xmlns:rdf="http://www.w3.org/1999/02/22-rdf-syntax-ns#"
   xmlns:svg="http://www.w3.org/2000/svg"
   xmlns="http://www.w3.org/2000/svg"
   xmlns:sodipodi="http://sodipodi.sourceforge.net/DTD/sodipodi-0.dtd"
   xmlns:inkscape="http://www.inkscape.org/namespaces/inkscape"
   id="svg2474"
   sodipodi:version="0.32"
   inkscape:version="0.46"
   width="1040"
   height="191"
   version="1.0"
   sodipodi:docname="Inti-IllimaniLogo.svg"
   inkscape:output_extension="org.inkscape.output.svg.inkscape">
  <metadata
     id="metadata2479">
    <rdf:RDF>
      <cc:Work
         rdf:about="">
        <dc:format>image/svg+xml</dc:format>
        <dc:type
           rdf:resource="http://purl.org/dc/dcmitype/StillImage" />
      </cc:Work>
    </rdf:RDF>
  </metadata>
  <defs
     id="defs2477">
    <inkscape:perspective
       sodipodi:type="inkscape:persp3d"
       inkscape:vp_x="0 : 526.18109 : 1"
       inkscape:vp_y="0 : 1000 : 0"
       inkscape:vp_z="744.09448 : 526.18109 : 1"
       inkscape:persp3d-origin="372.04724 : 350.78739 : 1"
       id="perspective2481" />
  </defs>
  <sodipodi:namedview
     inkscape:window-height="753"
     inkscape:window-width="1280"
     inkscape:pageshadow="2"
     inkscape:pageopacity="0.0"
     guidetolerance="10.0"
     gridtolerance="10.0"
     objecttolerance="10.0"
     borderopacity="1.0"
     bordercolor="#666666"
     pagecolor="#ffffff"
     id="base"
     showgrid="false"
     inkscape:zoom="0.52307692"
     inkscape:cx="520"
     inkscape:cy="95.5"
     inkscape:window-x="-4"
     inkscape:window-y="-4"
     inkscape:current-layer="svg2474" />
  <path
     style="fill:#000000"
     d="M 76.259146,189.55651 C 72.826676,188.77157 69.564176,187.84868 69.009146,187.50565 C 68.357016,187.10261 67.999996,172.47579 67.999996,146.16112 C 67.999996,115.8216 67.611806,102.26116 66.477316,92.970138 C 65.639836,86.111568 64.852336,79.417198 64.727316,78.093778 C 64.517536,75.873188 65.502966,75.321408 77.499996,70.941708 L 90.499996,66.195868 L 93.999996,76.096828 C 95.924996,81.542348 97.757286,85.998278 98.071756,85.998888 C 98.386216,85.999498 99.961216,83.187498 101.57176,79.749998 C 103.37669,75.897588 105.45903,73.026138 107,72.264738 C 108.71728,71.416228 115.49394,71.024868 128.64466,71.014738 C 145.02255,71.002128 148.72964,71.290428 154.29578,73.009638 C 165.55119,76.486078 164.16713,71.733638 170.31069,128 C 174.26926,164.25502 175.41905,177.80224 174.60772,178.62956 C 173.15775,180.10813 159.16453,185.39331 151.35566,187.41178 C 146.33019,188.71079 124.06628,189.79909 123.97926,188.75 C 123.42765,182.09991 120.02082,128.54447 120.0123,126.38933 C 120.00129,123.60407 120.62966,122.94305 126.01892,120.0706 C 129.32933,118.30617 133.88169,115.81522 136.13528,114.53516 L 140.23271,112.20778 L 136.05244,107.67272 L 131.87218,103.13767 L 120.18609,110.69471 C 113.75874,114.85109 108.38382,118.34879 108.24182,118.46739 C 107.98012,118.68597 112.47983,173.15186 113.54721,182.68536 L 114.12776,187.87072 L 110.31388,188.96766 C 103.89085,190.81504 83.318136,191.17078 76.259146,189.55651 z M 997.42656,189.88118 C 997.12767,189.39756 995.76343,181.46395 994.39491,172.25094 C 991.59353,153.39179 990.17605,117.12311 991.44946,96.886458 L 992.18025,85.272908 L 1005.642,83.049368 C 1013.0459,81.826418 1019.6908,81.051118 1020.4084,81.326468 C 1021.4062,81.709358 1021.8485,87.315628 1022.289,105.16355 C 1022.7471,123.72601 1023.2738,130.13658 1024.8634,136.5 C 1027.9946,149.03503 1033.74,165.79739 1036.9135,171.65653 C 1038.5055,174.59579 1039.3941,177.25642 1038.8883,177.56903 C 1034.6055,180.21593 998.14465,191.04306 997.42656,189.88118 z M 29.999996,188.03715 C 23.160256,187.32094 14.396466,184.73989 4.8629465,180.63396 L 1.2258965,179.06755 L 0.54362647,155.78377 C 0.16836647,142.9777 0.0050464706,124.40087 0.18067647,114.50194 L 0.49999647,96.503888 L 22.499996,92.352048 C 36.246446,89.757818 44.729896,88.570458 45.112786,89.187108 C 45.449816,89.729898 46.037466,100.37235 46.418666,112.837 C 47.352026,143.35578 50.182846,164.76741 55.926266,184.75 C 56.785456,187.73931 56.677556,188 54.581076,188 C 53.327446,188 48.971356,188.18506 44.900876,188.41125 C 40.830396,188.63744 34.124996,188.46909 29.999996,188.03715 z M 907.5,186.99391 C 904.75,185.88572 901.375,184.10964 900,183.04706 L 897.5,181.11511 L 896.88575,145.80755 C 896.30627,112.49874 896.12691,109.9056 893.71732,99.999998 C 892.31253,94.224998 889.26537,85.098568 886.94586,79.719048 C 884.62636,74.339518 882.92173,69.744938 883.15781,69.508858 C 883.63844,69.028228 903.94664,67.002138 908.29651,67.000838 C 910.31095,67.000238 911.51999,67.769068 912.61976,69.749998 C 913.45947,71.262498 915.49501,74.901668 917.14318,77.837038 L 920.13987,83.174068 L 925.31994,75.337038 L 930.5,67.499998 L 936.39657,67.195728 C 944.26636,66.789628 953.67192,68.345228 964,71.761118 L 972.5,74.572388 L 973.23854,90.536198 C 974.23846,112.14981 977.4905,137.80427 981.4977,155.69059 C 983.32252,163.83577 984.74455,170.55078 984.65778,170.61285 C 983.91598,171.14343 952.25899,182.01702 951.47756,182.00965 C 950.91521,182.00434 947.97969,168.56482 944.95418,152.14403 L 939.45326,122.28807 L 945.66459,115.43526 C 952.79414,107.56941 953.61579,105.61579 950.92579,102.92579 C 947.55748,99.557478 944.91738,100.52468 937.75746,107.75 L 931.06856,114.5 L 932.05465,136.5 C 933.2047,162.15794 934.13819,168.95062 937.50942,176.19213 C 938.8685,179.11146 939.98486,181.97964 939.99023,182.56586 C 939.9956,183.15208 938.0875,184.71177 935.75,186.03182 C 929.72404,189.43487 914.81713,189.94254 907.5,186.99391 z M 398,186.57937 C 392.467,184.99859 388,183.20903 388,182.57319 C 388,182.31121 389.62557,178.39965 391.61239,173.88082 C 396.12376,163.6201 398.61291,151.6832 400.17155,132.83469 C 401.30729,119.10028 401.24447,117.35469 399.18181,105.33469 C 397.97045,98.275608 396.98399,92.224568 396.98967,91.887928 C 396.99535,91.551298 400.42572,90.965428 404.61272,90.586018 C 412.14474,89.903478 423.8648,86.701478 432.71221,82.909038 C 435.22618,81.831418 437.45585,81.122508 437.66702,81.333678 C 438.31697,81.983638 440.76977,97.137128 445.48376,129.62578 C 448.86361,152.91959 450,163.77866 450,172.78178 L 450,184.812 L 445.32186,186.406 C 439.31168,188.45387 405.0011,188.57957 398,186.57937 z M 272.5,185.94623 C 262.6,185.5631 254.20187,185.19346 253.83748,185.12481 C 253.4731,185.05616 254.4678,181.64257 256.04792,177.53904 C 261.3245,163.83599 262.38108,155.32153 262.44354,126 L 262.5,99.499998 L 259.17384,90.159498 C 257.34445,85.022218 255.99496,80.671708 256.17497,80.491698 C 256.71235,79.954318 308.43677,90.040218 309.23672,90.838368 C 309.64191,91.242658 309.00394,96.281908 307.819,102.03672 C 303.56768,122.68387 305.47055,164.34167 311.62007,185.25 C 312.09006,186.84797 311.19503,186.98449 301.31739,186.82142 C 295.36782,186.7232 282.4,186.32937 272.5,185.94623 z M 195.63714,184.07753 C 192.96256,182.99407 190.54279,181.87613 190.25988,181.59321 C 189.97696,181.31029 188.04181,160.02358 185.95955,134.28941 L 182.17362,87.499998 L 185.65132,83.891768 L 189.12902,80.283548 L 184.56451,76.265698 L 180,72.247858 L 180,44.123928 L 180,15.999998 L 194.25,16.011008 C 202.0875,16.017058 210.1875,16.300938 212.25,16.641848 L 216,17.261688 L 216,27.470328 C 216,37.626848 216.01404,37.685578 218.75,38.972228 C 223.29665,41.110408 234.77082,41.430538 241.85076,39.616748 C 245.32168,38.727538 248.51559,37.999998 248.94832,37.999998 C 249.93818,37.999998 252.51193,69.821398 251.59614,70.737198 C 251.22557,71.107768 246.77734,71.579348 241.71119,71.785158 C 233.153,72.132828 231.80528,71.905588 222.70039,68.579678 C 217.3106,66.610858 212.6981,64.999998 212.45039,64.999998 C 210.52228,64.999998 213.64543,68.932738 223.86681,79.375808 L 235.73363,91.499998 L 236.3587,99.999998 C 236.70248,104.675 237.43308,120.875 237.98225,136 C 238.53142,151.125 239.2221,167.00551 239.51711,171.29003 L 240.05347,179.08006 L 233.45131,182.16958 C 227.33549,185.03152 225.87864,185.28814 213.67457,185.65328 C 202.28952,185.99391 199.83947,185.77987 195.63714,184.07753 z M 598.11567,185.25264 L 587.73134,184.92707 L 588.39748,175.21353 C 590.49046,144.69449 594.15332,97.181108 594.56197,95.249998 C 595.02556,93.059258 595.36022,93.002308 607.26905,93.087608 C 613.99607,93.135788 621.75,93.473288 624.5,93.837608 L 629.5,94.499998 L 633.17971,137.5 C 635.20355,161.15 636.89105,181.7375 636.92971,183.25 L 637,186 L 622.75,185.7891 C 614.9125,185.67311 603.82705,185.4317 598.11567,185.25264 z M 682.5,184.49787 C 680.3,183.78703 673.01142,182.18607 666.30316,180.94018 L 654.10632,178.67492 L 653.80316,148.58746 L 653.5,118.5 L 647.89917,102.4732 L 642.29834,86.446398 L 649.71347,75.272058 L 657.12861,64.097728 L 665.3143,67.156748 C 689.77199,76.296678 688.66769,76.136098 701.49316,72.417858 C 706.39185,70.997678 714.24739,69.430678 718.94993,68.935628 C 728.84668,67.893768 752.00681,67.717818 760.62878,68.618988 L 766.55093,69.237978 L 774.62902,86.853188 L 782.70711,104.4684 L 772.85356,117.33848 C 763.62053,129.39806 763.00114,130.50111 763.01812,134.85427 C 763.02808,137.40942 765.43339,149.2875 768.36325,161.25 L 773.69027,183 L 751.4783,183 L 729.26633,183 L 728.52504,149.77455 C 727.81776,118.07369 727.86901,116.48757 729.64187,115.208 C 730.66384,114.47039 735.67284,111.20669 740.77298,107.95534 C 745.87312,104.70399 750.33224,101.29777 750.68213,100.38597 C 751.66792,97.817038 749.56178,95.474148 746.47558,95.706568 C 743.72964,95.913358 728.0169,104.83599 722.64538,109.23878 L 719.79075,111.57858 L 720.90132,141.03929 C 721.51213,157.24268 722.24674,173.3125 722.53379,176.75 L 723.0557,183 L 709.52785,183 L 696,183 L 696,149.24682 C 696,118.84625 695.80742,114.82021 694.06113,108.71376 C 691.93001,101.26164 688.81674,95.527388 686.39798,94.599228 C 683.15106,93.353268 680.13805,93.989678 679.48087,96.060258 C 679.00834,97.549088 680.23777,100.26943 683.91349,105.86822 L 689,113.61593 L 689,130.14716 C 689,152.02597 687.83602,186.02711 687.09154,185.89515 C 686.76619,185.83748 684.7,185.2087 682.5,184.49787 z M 463.81131,184.39888 C 463.54141,183.90449 463.89848,177.425 464.6048,170 C 468.48689,129.19097 468.83152,88.022508 465.52984,59.499998 C 462.82593,36.141578 459.45468,26.441588 450.59005,16.514308 C 448.14145,13.772178 446.25135,11.415318 446.38982,11.276848 C 447.02556,10.641108 488.50079,0.16745765 488.88019,0.54684765 C 489.94052,1.6071876 499.18488,41.140318 504.53641,67.499998 C 510.87404,98.716868 510.05264,96.558798 518,102.87296 L 520.5,104.8592 L 516.80905,108.6796 L 513.11811,112.5 L 514.56815,120 C 515.36567,124.125 517.81939,137.85 520.02085,150.5 C 522.22232,163.15 524.24276,174.47649 524.51073,175.66998 C 524.92755,177.52646 524.28093,178.0781 520.03483,179.48843 C 517.30513,180.39509 510.89309,181.77053 505.78587,182.54496 C 494.1502,184.30931 464.47791,185.61987 463.81131,184.39888 z M 543.28485,183.56314 C 541.37294,182.70845 539.87045,181.18832 539.57816,179.81293 C 539.30782,178.54082 538.39408,165.575 537.54763,151 C 536.70118,136.425 535.75539,120.75279 535.44589,116.17286 C 535.11641,111.29735 535.29071,107.35464 535.8664,106.66098 C 536.96109,105.34196 537.38924,102.18355 537.15552,97.151208 C 536.95506,92.834658 532.04567,87.999998 527.86286,87.999998 C 526.25376,87.999998 524.75475,87.437498 524.53171,86.749998 C 524.30867,86.062498 523.64802,76.121798 523.0636,64.659548 C 521.85127,40.882388 519.84846,29.355868 514.08752,13.000788 C 511.75108,6.3677176 510.66668,2.0063476 511.35629,2.0159976 C 516.05565,2.0817176 560.40554,11.038148 561.02931,12.047428 C 562.28699,14.082398 570.8084,44.947588 571.92157,51.499998 C 576.38775,77.789158 579.42415,114.4288 578.67563,133 C 578.11389,146.93696 574.33532,182.96694 573.3271,184 C 573.05872,184.275 566.91282,184.6126 559.66956,184.75022 C 549.92828,184.9353 545.66304,184.62628 543.28485,183.56314 z M 866,181.0637 C 857.8486,180.52312 857.48852,180.39747 857.22005,178 C 856.496,171.53427 856.04325,170.77233 853.32994,171.45333 C 851.90929,171.80989 848.70372,173.66172 846.20648,175.56851 L 841.66602,179.03541 L 818.19457,178.7677 L 794.72311,178.5 L 791.90624,173 C 784.76831,159.06306 781.2585,143.20017 782.97679,132.64259 C 784.06435,125.96037 784.84294,124.42165 789.16792,120.40704 C 797.91762,112.28525 804.56155,110.47095 829.10033,109.50245 L 847.68659,108.76888 L 852.99698,98.006118 C 858.21148,87.437698 858.82511,83.999998 855.49709,83.999998 C 854.63146,83.999998 851.74532,87.465168 849.04211,91.749998 C 841.34942,103.94361 843.68124,102.88905 826.5,101.9447 C 818.25,101.49124 807.88258,100.83571 803.46129,100.48795 L 795.42257,99.855658 L 789.71129,84.594888 C 786.57008,76.201458 784,68.996108 784,68.582988 C 784,68.169878 798.7375,68.148828 816.75,68.536228 C 849.24352,69.235078 849.52103,69.223818 852.1858,67.098218 C 854.34211,65.378198 855.66063,65.082008 858.87378,65.595808 C 861.07498,65.947798 863.73671,67.037688 864.78873,68.017798 C 866.72156,69.818498 874.1766,91.750318 877.86956,106.5 C 883.10746,127.42013 884,135.07107 884,159.05076 L 884,182 L 879.25,181.8137 C 876.6375,181.71123 870.675,181.37373 866,181.0637 z M 857.15289,135 C 856.60857,129.5116 854.0651,126.09462 849.6364,124.90209 C 844.43618,123.50182 841.4836,124.38622 840.17115,127.73728 C 839.24293,130.10728 838.56713,135.71044 838.89868,138.28753 C 838.95441,138.72067 843.1625,138.94567 848.25,138.78753 L 857.5,138.5 L 857.15289,135 z M 330.25,151.86302 L 325,150.84745 L 325,139.5633 C 325,133.35701 325.28075,126.23084 325.62389,123.72736 L 326.24778,119.17557 L 336.87389,118.54663 C 354.09469,117.52737 369.05403,115.92143 375.86756,114.36052 C 379.36972,113.55822 382.43625,113.10292 382.68208,113.34874 C 382.9279,113.59457 383.2125,121.34554 383.31452,130.57313 L 383.5,147.35056 L 374.5,149.75974 C 367.37443,151.66716 362.37596,152.24282 350.5,152.52376 C 342.25,152.71892 333.1375,152.42159 330.25,151.86302 z M 33.951216,79.928578 C 28.699396,79.493218 21.358206,78.431008 17.637466,77.568118 C 9.0476665,75.576008 -0.25676353,71.111508 0.43332647,69.313148 C 0.71307647,68.584148 1.8815265,62.927958 3.0298965,56.743848 C 4.1782765,50.559728 5.2961365,44.953328 5.5140365,44.285178 C 5.7967165,43.418428 7.4758565,43.762748 11.374466,45.486908 C 19.990966,49.297528 31.614306,51.809138 48.699036,53.552118 L 54.898076,54.184548 L 52.842446,59.342268 C 51.645226,62.346198 50.563676,67.945088 50.252456,72.749998 L 49.718086,80.999998 L 46.609046,80.860068 C 44.899066,80.783108 39.203046,80.363938 33.951216,79.928578 z M 589.15641,66.197758 C 588.52039,58.606528 588,51.406528 588,50.197758 C 588,48.084158 588.37336,48.000108 597.75,48.002828 C 603.1125,48.004378 615.88293,48.298628 626.12873,48.656718 L 644.75745,49.307788 L 640.86522,55.329828 C 636.5809,61.958498 634,69.372328 634,75.050658 C 634,78.535088 633.79334,78.772478 630.25,79.358148 C 628.1875,79.699058 618.35789,79.982938 608.40641,79.988998 L 590.31283,79.999998 L 589.15641,66.197758 z M 308,74.294028 C 300.87448,72.435368 294.62584,71.651528 283,71.157998 L 267.5,70.499998 L 267.77688,60.499998 C 267.92917,54.999998 268.3188,47.398188 268.64272,43.607088 L 269.23169,36.714188 L 284.36584,37.417668 C 296.59327,37.986038 300.94048,38.604438 307,40.637428 C 317.30284,44.094058 328.01433,49.841118 327.9427,51.873868 C 327.84864,54.543198 319.45389,76.358188 318.43793,76.573378 C 317.92207,76.682648 313.225,75.656938 308,74.294028 z M 391,76.175178 C 389.1125,75.597338 388.51531,74.747128 388.5625,72.704918 C 388.59688,71.217208 388.70938,63.963398 388.8125,56.585318 L 389,43.170638 L 396.75,42.541108 C 401.0125,42.194858 413.275,40.805548 424,39.453748 C 434.725,38.101948 444.74865,36.996848 446.27477,36.997968 L 449.04954,36.999998 L 448.77477,53.155628 L 448.5,69.311258 L 443.09675,71.146828 C 440.12496,72.156388 434.27496,73.702768 430.09675,74.583228 C 421.84655,76.321768 395.04374,77.413128 391,76.175178 z M 985.89246,69.645798 C 982.80831,68.377098 978.96567,66.399678 977.35326,65.251548 L 974.42161,63.164018 L 975.22935,53.067978 C 975.6736,47.515158 976.36624,41.397218 976.76854,39.472548 L 977.5,35.973158 L 981,38.327888 C 987.62228,42.783218 993.86587,44.507028 1003.0135,44.405658 C 1007.6959,44.353768 1013.2084,43.995878 1015.2635,43.610348 L 1019,42.909378 L 1019,56.807948 L 1019,70.706528 L 1011.3491,71.353268 C 997.72997,72.504508 991.88952,72.112768 985.89246,69.645798 z"
     id="path2485" />
</svg>
